PathFileType	4	(X/Y/Z)	C:/Users/beibeiliu/ov580/test_trc/capture2\sequence.18_training_dense_right.trc
DataRate	CameraRate	NumFrames	NumMarkers	Units	OrigDataRate	OrigDataStartFrame	OrigNumFrames
120	120	8	19	mm	120	100	398
Frame#	Time	ThumbCMC			ThumbMCP			ThumbIP			ThumbTip			IndexMCP			IndexPIP			IndexTip			MiddleMCP			MiddlePIP			MiddleTip			RingMCP			RingPIP			RingTip			PinkyMCP			PinkyPIP			PinkyTip			BackHand1			BackHand2			BackHand3	
		X0	Y0	Z0	X1	Y1	Z1	X2	Y2	Z2	X3	Y3	Z3	X4	Y4	Z4	X5	Y5	Z5	X6	Y6	Z6	X7	Y7	Z7	X8	Y8	Z8	X9	Y9	Z9	X10	Y10	Z10	X11	Y11	Z11	X12	Y12	Z12	X13	Y13	Z13	X14	Y14	Z14	X15	Y15	Z15	X16	Y16	Z16	X17	Y17	Z17	X18	Y18	Z18	
99	0.825	92.912	61.2623	31.7955	87.0192	51.5908	6.75846	75.4386	54.1811	-20.5023	68.5471	55.8633	-43.5635	92.1963	70.8664	-40.2519	98.2764	43.458	-49.6765	107.465	37.3498	-15.2219	112.918	67.5151	-45.6342	120.71	38.2486	-39.7968	118.2	44.1085	-3.76611	134.806	63.7314	-39.3782	138.161	38.3615	-22.8897	133.059	55.1602	4.62589	153.681	64.5316	-32.3155	149.274	42.3447	-11.7012	137.504	60.9069	12.3278	137.512	100.207	2.21772	143.141	100.054	35.8965	107.408	93.1383	23.2446	
100	0.833333	94.6183	65.037	31.9704	83.1291	55.9897	6.70854	73.9172	57.0184	-17.9529	72.168	63.9727	-42.802	95.1073	77.4669	-41.0537	98.9096	46.9116	-49.1716	108.012	40.6155	-19.1074	115.135	73.99	-44.2818	121.273	43.0813	-39.5621	119.02	48.6388	-5.27483	134.89	71.0327	-39.4623	134.106	42.4248	-25.2776	128.97	61.667	4.57136	151.397	72.0222	-30.8012	144.948	46.8801	-16.8271	139.35	64.6609	11.2988	135.234	103.438	5.26914	143.417	102.289	35.5964	108.129	99.18	24.1135	
101	0.841667	91.4357	68.5698	29.7998	85.7338	62.2991	4.49686	71.5543	65.259	-21.0185	67.1406	67.2862	-39.255	89.8318	82.4065	-41.3913	96.0273	54.9265	-50.5994	105.991	47.04	-17.0522	113.646	79.7831	-45.3633	117.512	50.6857	-42.3423	116.402	55.5686	-3.7179	130.138	76.1919	-39.4269	132.79	48.9222	-26.2303	126.927	64.0237	3.61431	148.596	79.1541	-29.0367	143.808	52.8471	-15.866	136.565	68.1367	11.5982	136.979	107.517	9.55171	139.995	102.609	39.2899	109.088	102.113	25.506	
102	0.85	94.3815	72.3542	31.2671	82.666	65.869	6.3308	69.7884	71.1327	-20.0937	68.5994	74.9209	-38.1991	90.4004	91.8962	-38.0779	96.4398	64.7971	-52.0857	104.892	53.1733	-20.0449	112	89.4854	-43.1154	118.207	56.8499	-42.0284	118.316	63.2347	-3.4498	131.63	84.8247	-37.4906	131.432	55.7241	-27.9076	126.539	68.3758	3.63581	146.628	82.8259	-30.7987	143.869	58.7228	-16.5474	137.868	72.7349	11.4196	133.196	114.404	6.78327	140.631	108.092	41.7884	108.659	106.111	27.9623	
103	0.858333	90.5622	75.9765	33.6633	82.333	73.1696	7.1125	71.5714	80.2835	-16.8181	64.5372	88.7723	-40.4346	90.7987	101.292	-39.0376	92.7411	72.806	-50.4175	99.0615	61.1235	-19.6441	112.199	99.163	-41.5337	113.408	66.9977	-42.5852	113.637	67.2261	-7.34816	127.879	92.1355	-38.5325	131.112	65.0064	-29.2769	127.496	75.2814	3.00521	146.817	90.6567	-31.1426	141.786	66.1794	-18.7146	135.521	77.3953	12.1202	134.875	121.224	10.2792	138.256	112.649	43.0222	103.498	110.553	31.5339	
104	0.866667	94.161	85.6953	34.4752	77.0184	85.908	7.57867	69.9617	96.5057	-15.4574	64.9884	104.382	-34.6809	84.3015	117.488	-32.2911	87.8056	89.551	-49.8403	99.4355	76.4485	-21.1354	104.544	114.136	-40.4726	111.975	83.7458	-44.6217	114.671	79.2993	-8.27796	127.443	107.621	-37.0631	124.716	77.5167	-29.714	127.26	86.7732	3.3053	144.795	106.557	-28.8583	140.232	77.755	-19.1628	131.291	88.8938	13.3653	134.878	129.998	17.8257	141.121	117.445	46.5791	109.044	118.291	34.9728	
105	0.875	91.0784	101.403	36.866	75.7848	103.471	10.7909	64.6588	117.258	-11.8573	62.1317	129.843	-30.6595	84.2056	140.11	-27.0115	84.3643	117.065	-45.9321	93.6126	95.5277	-23.3987	105.007	137.058	-33.5773	106.989	109.492	-44.9795	109.707	95.6403	-9.27472	122.206	127.691	-34.1543	119.469	98.3665	-30.6501	120.836	97.5222	0.770394	141.955	124.449	-25.9194	132.989	95.3919	-18.9083	130.28	99.456	11.4157	135.441	143.225	21.0905	139.797	127.885	50.308	106.253	131.919	38.9279	
106	0.883333	87.0619	110.719	41.5611	73.7866	116.682	16.57	64.2495	134.241	-4.74068	62.5777	145.652	-21.4503	87.5958	158.575	-18.0361	85.0748	141.523	-40.51	91.3348	112.503	-20.826	106.244	154.58	-27.4643	104.261	126.11	-40.7136	107.487	110.219	-4.90406	120.959	145.778	-28.4009	117.525	117.09	-31.6658	117.17	109.875	-0.0841934	142.954	139.105	-21.5069	133.345	108.376	-18.7137	132.724	107.861	10.998	141.279	153.677	27.1041	146.683	133.356	53.9618	109.538	142.772	45.1137	
